<?xml version="1.0" encoding="utf-8"?>
<!-- Generator: Adobe Illustrator 19.2.0, SVG Export Plug-In . SVG Version: 6.00 Build 0)  -->
<svg version="1.1" id="videocard" xmlns="http://www.w3.org/2000/svg" xmlns:xlink="http://www.w3.org/1999/xlink" x="0px" y="0px"
	 viewBox="0 0 224 192.3752" enable-background="new 0 0 224 192.3752" xml:space="preserve">
<g>
	<polygon fill="none" points="180,112.1876 180,104.1876 180,100.1876 180,92.1876 180,88.1876 180,80.1876 180,76.1876 
		180,68.1876 132,68.1876 132,76.1876 132,80.1876 132,88.1876 132,92.1876 132,100.1876 132,104.1876 132,112.1876 	"/>
	<rect x="12" y="56.1876" fill="none" width="8" height="32"/>
	<path fill="none" d="M52.0351,60.1876h31.9296c2.2268,0,4.0353-1.8048,4.0353-4.0196v-3.9608c0-2.2148-1.8085-4.0196-4.0353-4.0196
		H52.0351c-2.2268,0-4.0351,1.8048-4.0351,4.0196v3.9608C48,58.3828,49.8083,60.1876,52.0351,60.1876z"/>
	<path fill="none" d="M52.0351,96.1876h31.9296c2.2268,0,4.0353-1.8048,4.0353-4.0196v-3.9608c0-2.2148-1.8085-4.0196-4.0353-4.0196
		H52.0351c-2.2268,0-4.0351,1.8048-4.0351,4.0196v3.9608C48,94.3828,49.8083,96.1876,52.0351,96.1876z"/>
	<path fill="none" d="M28,48.1876v48v48h16v16h172v-132H28V48.1876z M84,152.1876c-4.4101,0-8-3.59-8-8s3.5899-8,8-8
		c4.4099,0,8,3.59,8,8S88.4099,152.1876,84,152.1876z M184,152.1876c-4.4101,0-8-3.59-8-8s3.5899-8,8-8c4.4099,0,8,3.59,8,8
		S188.4099,152.1876,184,152.1876z M116,104.1876h8v-4h-8v-8h8v-4h-8v-8h8v-4h-8v-8h8v-8h64v8h8v8h-8v4h8v8h-8v4h8v8h-8v4h8v8h-8v8
		h-64v-8h-8V104.1876z M108,136.1876c4.4099,0,8,3.59,8,8s-3.5901,8-8,8c-4.4101,0-8-3.59-8-8S103.5899,136.1876,108,136.1876z
		 M40,52.2072c0-6.6288,5.3983-12.0196,12.0351-12.0196h31.9296C90.6015,40.1876,96,45.5784,96,52.2072v3.9608
		c0,6.6288-5.3985,12.0196-12.0353,12.0196H52.0351C45.3983,68.1876,40,62.7968,40,56.168V52.2072z M40,88.2072
		c0-6.6288,5.3983-12.0196,12.0351-12.0196h31.9296C90.6015,76.1876,96,81.5784,96,88.2072v3.9608
		c0,6.6288-5.3985,12.0196-12.0353,12.0196H52.0351C45.3983,104.1876,40,98.7968,40,92.168V88.2072z"/>
	<path d="M28,20.1876V0H0v8h20v12.1876v28H4v48h16v56v40.1876h8v-40.1876h8v16h188v-148H28z M12,88.1876v-32h8v32H12z M216,160.1876
		H44v-16H28v-48v-48v-20h188V160.1876z"/>
	<path d="M52.0351,68.1876h31.9296C90.6015,68.1876,96,62.7968,96,56.168v-3.9608c0-6.6288-5.3985-12.0196-12.0353-12.0196H52.0351
		C45.3983,40.1876,40,45.5784,40,52.2072v3.9608C40,62.7968,45.3983,68.1876,52.0351,68.1876z M48,52.2072
		c0-2.2148,1.8083-4.0196,4.0351-4.0196h31.9296c2.2268,0,4.0353,1.8048,4.0353,4.0196v3.9608c0,2.2148-1.8085,4.0196-4.0353,4.0196
		H52.0351C49.8083,60.1876,48,58.3828,48,56.168V52.2072z"/>
	<path d="M52.0351,104.1876h31.9296C90.6015,104.1876,96,98.7968,96,92.168v-3.9608c0-6.6288-5.3985-12.0196-12.0353-12.0196
		H52.0351C45.3983,76.1876,40,81.5784,40,88.2072v3.9608C40,98.7968,45.3983,104.1876,52.0351,104.1876z M48,88.2072
		c0-2.2148,1.8083-4.0196,4.0351-4.0196h31.9296c2.2268,0,4.0353,1.8048,4.0353,4.0196v3.9608c0,2.2148-1.8085,4.0196-4.0353,4.0196
		H52.0351C49.8083,96.1876,48,94.3828,48,92.168V88.2072z"/>
	<path d="M124,120.1876h64v-8h8v-8h-8v-4h8v-8h-8v-4h8v-8h-8v-4h8v-8h-8v-8h-64v8h-8v8h8v4h-8v8h8v4h-8v8h8v4h-8v8h8V120.1876z
		 M132,100.1876v-8v-4v-8v-4v-8h48v8v4v8v4v8v4v8h-48v-8V100.1876z"/>
	<path d="M84,136.1876c-4.4101,0-8,3.59-8,8s3.5899,8,8,8c4.4099,0,8-3.59,8-8S88.4099,136.1876,84,136.1876z"/>
	<path d="M108,152.1876c4.4099,0,8-3.59,8-8s-3.5901-8-8-8c-4.4101,0-8,3.59-8,8S103.5899,152.1876,108,152.1876z"/>
	<path d="M184,136.1876c-4.4101,0-8,3.59-8,8s3.5899,8,8,8c4.4099,0,8-3.59,8-8S188.4099,136.1876,184,136.1876z"/>
</g>
</svg>
